<?xml version="1.0" encoding="utf-8"?>
<!-- Generator: Adobe Illustrator 25.4.1, SVG Export Plug-In . SVG Version: 6.00 Build 0)  -->
<svg version="1.1" id="svg404" xmlns="http://www.w3.org/2000/svg"
     xmlns:xlink="http://www.w3.org/1999/xlink" x="0px" y="0px"
     viewBox="0 0 533 250" style="enable-background:new 0 0 533 250;"
     xml:space="preserve">
	<style type="text/css">
		.st0{fill:#c9d1d9;}
	</style>
  <path class="st0"
        d="M104.3,23.4h42.2v125.5H169v34.6h-22.4v44h-38.7v-44H26.9v-39.1L104.3,23.4z M107.8,68.2l-51.5,80.7h51.5V68.2z"/>
  <path class="st0"
        d="M198.3,125.5c0-35.4,5.6-61.9,16.8-79.5s28.1-26.5,50.6-26.5c22.6,0,39.5,8.8,50.7,26.4c11.2,17.6,16.8,44.1,16.8,79.6c0,35.4-5.6,61.8-16.8,79.4c-11.2,17.6-28.1,26.4-50.7,26.4c-22.5,0-39.4-8.8-50.6-26.5S198.3,160.8,198.3,125.5z M265.7,53.8c-9.3,0-16.1,5.7-20.4,17.1c-4.3,11.4-6.4,29.6-6.4,54.7c0,7.7,0.2,14.8,0.5,21.2l47-75.1c-0.1-0.3-0.2-0.5-0.3-0.8C282,59.4,275.1,53.8,265.7,53.8z M245.4,180.1c4.3,11.4,11.1,17.1,20.4,17.1c9.4,0,16.2-5.7,20.5-17.1c4.3-11.4,6.4-29.6,6.4-54.6c0-9.5-0.3-18-1-25.4l-47.7,76C244.5,177.6,244.9,178.9,245.4,180.1z"/>
  <path class="st0"
        d="M441.4,23.4h42.2v125.5h22.4v34.6h-22.4v44H445v-44H364v-39.1L441.4,23.4z M445,68.2l-51.5,80.7H445V68.2z"/>
</svg>
