<?xml version="1.0" encoding="utf-8"?>
<!-- Generator: Adobe Illustrator 25.4.1, SVG Export Plug-In . SVG Version: 6.00 Build 0)  -->
<svg version="1.1" id="svgLife" xmlns="http://www.w3.org/2000/svg"
     xmlns:xlink="http://www.w3.org/1999/xlink" x="0px" y="0px"
     viewBox="0 0 64 64" style="enable-background:new 0 0 64 64;"
     xml:space="preserve">
    <style type="text/css">
    	.st0{fill:#A29B95;}
    	.st1{fill:#DDDAD5;}
    	.st2{fill:#DFCEA3;}
    	.st3{fill:#FFF6D7;}
    	.st4{fill:#EFD8B1;}
    	.st5{fill:#ED4C5C;}
    	.st6{fill:#8F9496;}
    	.st7{fill:#FFCE31;}
    	.st8{fill:#3E4347;}
    </style>
  <ellipse class="st0" cx="32" cy="43.7" rx="8.7" ry="3.3"/>
  <ellipse class="st1" cx="32" cy="42.9" rx="8" ry="2.6"/>
  <ellipse class="st0" cx="32" cy="41.8" rx="5.1" ry="2"/>
  <ellipse class="st1" cx="32" cy="41.5" rx="4.8" ry="1.5"/>
  <ellipse class="st0" cx="32" cy="37.6" rx="5.1" ry="4.2"/>
  <ellipse class="st1" cx="32" cy="36.7" rx="4.3" ry="3.4"/>
  <ellipse class="st0" cx="32" cy="34.5" rx="5.5" ry="2.1"/>
  <ellipse class="st1" cx="32" cy="34.1" rx="4.9" ry="1.7"/>
  <ellipse class="st0" cx="32" cy="31.2" rx="10.2" ry="3.3"/>
  <ellipse class="st1" cx="32" cy="30.5" rx="9.4" ry="2.6"/>
  <ellipse class="st2" cx="32" cy="29.9" rx="6" ry="1.7"/>
  <rect x="26" y="22.8" class="st2" width="12" height="7"/>
  <ellipse class="st3" cx="32" cy="22.8" rx="6" ry="1.7"/>
  <ellipse class="st4" cx="32" cy="23.2" rx="4.6" ry="1.3"/>
  <path class="st5"
        d="M31.8,23c-1,0-1.9-0.5-0.8-2.3c1-1.8,1.4-2.2,1.4-2.8C32.3,17.9,35.4,23,31.8,23z"/>
  <path class="st6"
        d="M32,22.2c0.1,0.3,0.1,0.6,0.2,0.9c0,0.2,0,0.3,0,0.5c0,0.1-0.1,0.3-0.2,0.3c-0.1,0-0.2-0.3-0.2-0.3c-0.1-0.2,0-0.3,0-0.5C31.8,22.9,31.9,22.2,32,22.2z"/>
  <path class="st7"
        d="M31.9,23c-0.6,0-1.2-0.3-0.5-1.5c0.7-1.2,0.9-1.4,0.9-1.8C32.2,19.8,34.2,23,31.9,23z"/>
  <path class="st8"
        d="M31.8,23c0,0,0.1-0.8,0.2-0.8c0.1,0,0.2,0.8,0.2,0.8S32,23,31.8,23z"/>
</svg>
