<?xml version="1.0" encoding="utf-8"?>
<!-- Generator: Adobe Illustrator 25.4.1, SVG Export Plug-In . SVG Version: 6.00 Build 0)  -->
<svg version="1.1" id="svgNew" xmlns="http://www.w3.org/2000/svg"
     xmlns:xlink="http://www.w3.org/1999/xlink" x="0px" y="0px"
     viewBox="0 0 64 64" style="enable-background:new 0 0 64 64;"
     xml:space="preserve">
    <style type="text/css">
    	.st0{fill:#4FD1D9;}
    	.st1{fill:#FFFFFF;}
    </style>
  <path class="st0"
        d="M46.5,42.2c0,2.7-2.2,4.8-4.8,4.8H22.3c-2.7,0-4.8-2.2-4.8-4.8V22.8c0-2.7,2.2-4.8,4.8-4.8h19.4c2.7,0,4.8,2.2,4.8,4.8V42.2z"/>
  <polygon class="st1"
           points="21.8,35.9 21.8,29.1 23,29.1 25.5,33.6 25.5,29.1 26.7,29.1 26.7,35.9 25.4,35.9 23,31.4 23,35.9 "/>
  <polygon class="st1"
           points="28.6,35.9 28.6,29.1 33.3,29.1 33.3,30.2 29.9,30.2 29.9,31.7 33.1,31.7 33.1,32.9 29.9,32.9 29.9,34.7 33.5,34.7 33.5,35.9 "/>
  <polygon class="st1"
           points="36,35.9 34.4,29.1 35.8,29.1 36.8,33.7 38,29.1 39.6,29.1 40.8,33.8 41.8,29.1 43.1,29.1 41.5,35.9 40.1,35.9 38.8,30.8 37.5,35.9 "/>
</svg>
