<?xml version="1.0" encoding="utf-8"?>
<!-- Generator: Adobe Illustrator 25.4.1, SVG Export Plug-In . SVG Version: 6.00 Build 0)  -->
<svg version="1.1" id="svgLogo" xmlns="http://www.w3.org/2000/svg"
     xmlns:xlink="http://www.w3.org/1999/xlink" x="0px" y="0px"
     viewBox="0 0 206.7 49" style="enable-background:new 0 0 206.7 49;"
     xml:space="preserve">
	<style type="text/css">
		.st0{fill:#c9d1d9;}
	</style>
  <path class="st0"
        d="M7.4,8.5h3.4v16.3l8.7-8.4h4l-8,7.6l9.2,12.6h-4.1l-7.5-10.4l-2.5,2.3v8.1H7.4V8.5z"/>
  <path class="st0"
        d="M36.5,10.6v5.7H44v2.6h-7.6v11c0,1.5,0.3,2.5,0.8,3.1c0.6,0.6,1.6,0.9,3,0.9H44v2.7H40c-2.5,0-4.3-0.5-5.3-1.5c-1-1-1.5-2.7-1.5-5.2v-11h-5.4v-2.6h5.4v-5.7H36.5z"/>
  <path class="st0"
        d="M66.6,24v12.5h-3.3V24c0-1.8-0.3-3.2-1-4c-0.6-0.9-1.6-1.3-3-1.3c-1.6,0-2.7,0.6-3.6,1.7c-0.8,1.1-1.3,2.7-1.3,4.7v11.4h-3.3V16.3h3.3v3c0.6-1.2,1.4-2,2.4-2.6c1-0.6,2.2-0.9,3.6-0.9c2.1,0,3.6,0.7,4.6,2C66.1,19.2,66.6,21.3,66.6,24z"/>
  <path class="st0"
        d="M74.2,8.5h3.4v16.3l8.7-8.4h4l-8,7.6l9.2,12.6h-4.1l-7.5-10.4l-2.5,2.3v8.1h-3.4V8.5z"/>
  <path class="st0"
        d="M96.5,8.5h3.4v16.3l8.7-8.4h4l-8,7.6l9.2,12.6h-4.1l-7.5-10.4l-2.5,2.3v8.1h-3.4V8.5z"/>
  <path class="st0" d="M121.5,29.3h6.4v7.3h-6.4V29.3z"/>
  <path class="st0"
        d="M149.8,29.2c0,1.5,0.3,2.6,0.8,3.4s1.4,1.1,2.4,1.1h3.9v2.8h-4.2c-2,0-3.5-0.6-4.6-1.9c-1.1-1.3-1.6-3.1-1.6-5.4V10.9h-5.3V8.3h8.7V29.2z"/>
  <path class="st0"
        d="M170.2,15.8c2.8,0,5,0.9,6.4,2.7c1.5,1.8,2.2,4.5,2.2,7.9c0,3.5-0.7,6.1-2.2,7.9c-1.5,1.8-3.6,2.7-6.5,2.7c-2.8,0-5-0.9-6.4-2.7c-1.5-1.8-2.2-4.4-2.2-7.9c0-3.4,0.7-6.1,2.2-7.9S167.4,15.8,170.2,15.8z M170.2,18.7c-1.7,0-3,0.7-3.8,2s-1.3,3.3-1.3,5.8c0,2.6,0.4,4.5,1.3,5.8c0.9,1.3,2.1,2,3.8,2c1.7,0,3-0.7,3.8-2c0.9-1.3,1.3-3.3,1.3-5.8c0-2.6-0.4-4.5-1.3-5.8S171.9,18.7,170.2,18.7z"/>
  <path class="st0"
        d="M200.1,35.3c0,3-0.7,5.3-2.1,6.9c-1.4,1.6-3.5,2.3-6.3,2.3c-0.9,0-1.9-0.1-2.9-0.3s-2-0.4-3-0.7v-3.3c1.2,0.6,2.3,1,3.2,1.2c1,0.3,1.8,0.4,2.7,0.4c1.8,0,3.1-0.5,3.9-1.5s1.2-2.5,1.2-4.6v-0.1v-2.3c-0.5,1.1-1.3,2-2.2,2.5s-2,0.8-3.3,0.8c-2.4,0-4.2-0.9-5.7-2.8c-1.4-1.9-2.1-4.4-2.1-7.6c0-3.2,0.7-5.7,2.1-7.6s3.3-2.8,5.7-2.8c1.3,0,2.4,0.3,3.3,0.8s1.6,1.3,2.2,2.4v-2.6h3.3V35.3z M196.8,26.3c0-2.5-0.4-4.4-1.2-5.7c-0.8-1.3-2-1.9-3.5-1.9c-1.6,0-2.9,0.6-3.7,1.9c-0.9,1.3-1.3,3.2-1.3,5.7c0,2.5,0.4,4.4,1.3,5.7c0.9,1.3,2.1,2,3.7,2c1.5,0,2.7-0.7,3.5-2C196.4,30.7,196.8,28.8,196.8,26.3z"/>
</svg>
