<?xml version="1.0" encoding="utf-8"?>
<!-- Generator: Adobe Illustrator 25.4.1, SVG Export Plug-In . SVG Version: 6.00 Build 0)  -->
<svg version="1.1" id="svgTech" xmlns="http://www.w3.org/2000/svg"
     xmlns:xlink="http://www.w3.org/1999/xlink" x="0px" y="0px"
     viewBox="0 0 64 64" style="enable-background:new 0 0 64 64;"
     xml:space="preserve">
	<style type="text/css">
		.st0{fill:#00B9F1;}
		.st1{fill:#89967A;}
		.st2{fill:#B6C4A7;}
		.st3{fill:#3E4347;}
		.st4{fill:#FF5263;}
		.st5{fill:#EFFFD9;}
		.st6{fill:#545B61;}
		.st7{opacity:0.7;}
		.st8{fill:#F5F5F5;}
	</style>
  <path class="st0"
        d="M44.4,22.6c-0.3-0.5-0.8-0.8-1.3-1c-1.6-0.8-5.6-0.6-6-2.7c-0.4-2.8-2.8,0-3.3,0c-0.5,0-0.8-1.9-1.8-1.9c-1,0-1.3,1.9-1.8,1.9c-0.4,0-2.8-2.8-3.3,0c-0.3,2.1-4.3,1.9-6,2.7c-0.5,0.2-1,0.6-1.3,1C19.4,23,20,23.4,20.3,23c0.8-1,2.3-1.1,3.5-1.4c0.9-0.2,2-0.3,2.8-0.7c1.3-0.5,1.2-2.4,1.6-2.4c0.3,0,1.3,1.5,2.2,1.5c0.8,0,1.2-1.8,1.7-1.8c0.4,0,0.9,1.8,1.7,1.8c0.9,0,1.9-1.5,2.2-1.5c0.4,0,0.3,1.9,1.6,2.4c0.9,0.4,1.9,0.5,2.8,0.7c1.1,0.2,2.7,0.4,3.5,1.4C44.1,23.4,44.7,23,44.4,22.6z"/>
  <path class="st1"
        d="M42.2,43.6c0,1.3-1.1,2.4-2.4,2.4H24.2c-1.3,0-2.4-1.1-2.4-2.4V33.4h20.3V43.6z"/>
  <path class="st2"
        d="M32,21.8c-7.5,0-10.2,4.1-10.2,11.6v10.2h20.3V33.4C42.2,25.9,39.5,21.8,32,21.8z"/>
  <path class="st1"
        d="M21.8,42.6c-0.5,0-1-0.6-1-1.3V38c0-0.7,0.4-1.3,1-1.3V42.6z"/>
  <path class="st1"
        d="M42.2,36.8c0.5,0,1,0.6,1,1.3v3.3c0,0.7-0.4,1.3-1,1.3V36.8z"/>
  <polygon class="st3"
           points="19.9,25.6 18.9,25.6 18.9,40.2 19.9,40.2 20.9,40.2 20.9,39.2 19.9,39.2 "/>
  <polygon class="st3"
           points="44.1,25.6 44.1,39.2 43.1,39.2 43.1,40.2 44.1,40.2 45.1,40.2 45.1,25.6 "/>
  <circle class="st0" cx="44.6" cy="25.6" r="1.9"/>
  <circle class="st4" cx="19.4" cy="25.6" r="1.9"/>
  <circle class="st5" cx="26.9" cy="31.2" r="3.9"/>
  <circle class="st6" cx="26.9" cy="31.2" r="2.9"/>
  <circle class="st4" cx="26.9" cy="31.2" r="1.1"/>
  <circle class="st5" cx="37.1" cy="31.2" r="3.9"/>
  <circle class="st6" cx="37.1" cy="31.2" r="2.9"/>
  <circle class="st4" cx="37.1" cy="31.2" r="1.1"/>
  <path class="st5"
        d="M26.1,42.2c-3.6,0-3.6-6.3,0-6.3h11.8c3.6,0,3.6,6.3,0,6.3H26.1z"/>
  <path class="st1"
        d="M26.4,41.4c-2.9,0-2.9-4.8,0-4.8h11.2c2.9,0,2.9,4.8,0,4.8H26.4z"/>
  <g class="st7">
		<path class="st3" d="M26.8,40.5c0,0.6-1,0.6-1,0v-3c0-0.6,1-0.6,1,0V40.5z"/>
    <path class="st3" d="M29.1,40.5c0,0.6-1,0.6-1,0v-3c0-0.6,1-0.6,1,0V40.5z"/>
    <path class="st3" d="M31.3,40.5c0,0.6-1,0.6-1,0v-3c0-0.6,1-0.6,1,0V40.5z"/>
    <path class="st3" d="M33.6,40.5c0,0.6-1,0.6-1,0v-3c0-0.6,1-0.6,1,0V40.5z"/>
    <path class="st3" d="M35.9,40.5c0,0.6-1,0.6-1,0v-3c0-0.6,1-0.6,1,0V40.5z"/>
    <path class="st3" d="M38.2,40.5c0,0.6-1,0.6-1,0v-3c0-0.6,1-0.6,1,0V40.5z"/>
	</g>
  <circle class="st8" cx="32" cy="33.9" r="1"/>
  <rect x="31.8" y="32.9"
        transform="matrix(0.7071 -0.7071 0.7071 0.7071 -14.5828 32.5498)"
        class="st6" width="0.4" height="1.9"/>
</svg>
