<?xml version="1.0" encoding="utf-8"?>
<!-- Generator: Adobe Illustrator 25.4.1, SVG Export Plug-In . SVG Version: 6.00 Build 0)  -->
<svg version="1.1" id="svgFashion" xmlns="http://www.w3.org/2000/svg" xmlns:xlink="http://www.w3.org/1999/xlink" x="0px" y="0px" viewBox="0 0 64 64" style="enable-background:new 0 0 64 64;" xml:space="preserve">
	<style type="text/css">
		.st0{fill:#B70B0B;}
		.st1{fill:#FF4848;}
		.st2{fill:#FFE1BD;}
		.st3{fill:#594640;}
		.st4{fill:#E6B796;}
		.st5{fill:#664E27;}
	</style>
	<path class="st0" d="M42.9,33c-0.7,6-12.7,5.3-13.3,2.3c-4.5,2.3-3.2,5.8-3.2,5.8C30.4,50.3,48.8,41,42.9,33z"/>
	<path class="st1" d="M36.9,42.1c1.5,0.9,0.7,2.1-1.6,1.1c-1.9-0.8-0.3-2.5,0.4-1.9C36.3,41.8,36.6,41.9,36.9,42.1z"/>
	<path class="st2" d="M35.6,41.9c-1.7-1.4-1.5-2.2-3.1-2.6c-1.6-2.5-2.9-3.3-2.9-3.3c-0.8,1.2-0.5,2.2-0.5,2.2s1.6,2.1,2.8,2.7c1.5,0.7,3,1.8,3,1.8C35.7,43.3,36.4,42.6,35.6,41.9z"/>
	<path class="st1" d="M29.1,45.5c0.1,1.9-2.8,1.1-1.8,0.3c0.2-0.1,0.2-0.4,0.1-0.7C26.8,43.3,29,43.2,29,44C29,44.7,29.1,45.2,29.1,45.5z"/>
	<path class="st2" d="M28.5,44.4c-0.1-2.1,0.6-2.5-0.2-3.9c0.3-1.2-0.3-3.2-0.3-3.2c-1.2,0.1-1.9,0.3-1.9,0.3s0.3,2.5,0.7,3.7c0.5,1.5,0.8,3.2,0.8,3.2C27.5,45.5,28.6,45.4,28.5,44.4z"/>
	<path class="st3" d="M33.4,21.8c1.3,3.7,5.8,4.9,8.2,1.5c1.3,4.8-5.4,7-9.2,7.1c-11.8,0.3-10.5-6.3-10.5-7.1C21.9,15.9,31.4,16.1,33.4,21.8z"/>
	<path class="st2" d="M35.4,32.5c-0.8-0.4-1-0.6-1.3-0.4l-3.5-2.2c-0.8-0.5-1.8-0.7-1.8-0.7c-0.7,0.7,0.2,1.3,0.2,1.3l4.4,2.6l-0.2,0.3c-0.1,0.2-0.1,0.5,0.2,0.6l0.3,0.2c0.2,0.1,0.3,0.1,0.5,0c0.4,0.2,1,0.4,1.4-0.4C35.8,33.6,36.2,32.9,35.4,32.5z"/>
	<path class="st2" d="M22.6,29.6l-2.2-2.1l0,0c0.2-0.2,0.2-0.5,0-0.6l-0.2-0.2c-0.1-0.1-0.3-0.2-0.5-0.1c-0.4-0.3-0.9-0.6-1.5,0c-0.1,0.1-0.6,0.7,0,1.3c0.6,0.6,0.9,0.8,1.2,0.7l2.8,2.7l3.1-0.3l0.8-1.7L22.6,29.6z"/>
	<path class="st1" d="M27.5,39.7c4.9-1.6,5.6,0.1,11.6-0.3c6-0.5,3.7-6.4,3.7-6.4c-1,5.1-12.6,3.2-13.2,0.2c1-1.1,1-2-0.9-4c0,0-0.6,0.6-1.4,0.6c-0.8,0-1.4-0.6-1.4-0.6c-3.1,3.3-0.7,4.3-0.7,4.3c0.8,1.6-0.4,3.4,1.1,7.6C26.3,41.1,26.8,40,27.5,39.7z"/>
	<path class="st2" d="M31.3,24.1c0.1-2.1-0.9-2.3-0.9-2.3c-4.7,0-7,2.3-7,2.3s-1.1-0.8-1.1,0.7c0,0.6,0.2,1,1,1.1c0.3,1.9,1.3,2.6,2.9,2.7v0.5H26l-1,1.6c0,0.3,1-1,2.4,0.8c1.4-1.7,2.4-0.4,2.4-0.8l-1-1.6h-0.2v-0.5c1.6-0.2,2.7-0.9,2.9-2.7c0.7-0.1,1-0.5,1-1.1C32.5,23.3,31.3,24.1,31.3,24.1z"/>
	<path class="st4" d="M20,27.6c-0.1-0.1-0.5-0.4-0.5-0.5c-0.1-0.1-0.1-0.3,0-0.4c0,0,0,0,0,0c0.1-0.1,0-0.2-0.1-0.1c-0.1,0.1-0.2,0.3-0.1,0.5c0,0.1,0.1,0.2,0.2,0.3C19.6,27.4,19.9,27.7,20,27.6C20,27.8,20.1,27.7,20,27.6z"/>
	<circle class="st5" cx="25.6" cy="24.3" r="0.7"/>
	<circle class="st5" cx="29.2" cy="24.3" r="0.7"/>
	<path class="st5" d="M28.6,26.6c-0.8,0.6-1.6,0.6-2.4,0c-0.1-0.1-0.2,0.1-0.1,0.2c0.2,0.4,0.7,0.8,1.3,0.8s1.1-0.4,1.3-0.8C28.8,26.6,28.7,26.5,28.6,26.6z"/>
</svg>
