<?xml version="1.0" encoding="utf-8"?>
<!-- Generator: Adobe Illustrator 25.4.1, SVG Export Plug-In . SVG Version: 6.00 Build 0)  -->
<svg version="1.1" id="svgOnsen" xmlns="http://www.w3.org/2000/svg" xmlns:xlink="http://www.w3.org/1999/xlink" x="0px" y="0px" viewBox="0 0 64 64" style="enable-background:new 0 0 64 64;" xml:space="preserve">
    <style type="text/css">
    	.st0{fill:#FFE1BD;}
    	.st1{fill:#E6B796;}
    	.st2{fill:#594640;}
    	.st3{fill:#574137;}
    	.st4{fill:#C94747;}
    	.st5{fill:#C6BBB3;}
    	.st6{fill:#E2D8C7;}
    	.st7{fill:#DDD3CA;}
    	.st8{opacity:0.6;}
    	.st9{fill:#A6AEB0;}
    </style>
    <path class="st0" d="M39.9,34.3c1.1,1.8-2,3.2-3.8,3.2c-1.8,0-6-0.6-5.1-2.5c0.9-2,4.3-5.5,6.1-5.5C38.8,29.4,38.8,32.5,39.9,34.3z"/>
    <path class="st1" d="M37.2,32.1c-0.2,0.5-0.6,2.7-1.1,2.8"/>
    <path class="st1" d="M25.7,32.4L20,32.3c0,0,1.7,1.6,2.3,3.9l3.4-1.7C25.2,33.7,25.7,32.4,25.7,32.4z"/>
    <path class="st2" d="M17.1,31.9c-1.7-2.9-0.6-4-0.6-4c0.3-2.1,4.4-3.8,6.1-3.5c3.4,0.7,3,3.7,2.6,3.9l-4.1,3.5c0,0,1.3,3.2,3.4,3.1l-4.1,2.5L17.1,31.9z"/>
    <path class="st0" d="M25,33.3c-1.5,0.5-1.8,1.2-4-1.8l1-0.6c0,0,0.8-0.2,0-3.1c-0.3-1.3,0.4-2.9,1.1-2.4c1.5,1.1,1.1,1.9,1.5,2.2c0.7,0.6,1.2,0,1.5,0.5c0.1,0.3-0.3,0.6-0.3,0.7c0.1,0.2,0.3,0.2,0.6,0.2c0.3,0,0,0.4,0.4,0.8c0.4,0.4,0.5,0.6,0.5,0.6c-0.1,0.2-0.4,0.4-0.1,0.7C27.6,31.8,27.8,32.4,25,33.3z"/>
    <path class="st1" d="M24.2,27.9c-0.1-0.1-0.2-0.2-0.2-0.3c0-0.1-0.1-0.3-0.2-0.4c-0.1-0.1-0.2-0.3-0.4-0.3c-0.2-0.1-0.3,0-0.4,0c0.1,0.1,0.3,0.1,0.4,0.2c0.1,0.1,0.2,0.2,0.2,0.3c0.1,0.1,0.1,0.2,0.2,0.4C23.9,27.8,24.1,28,24.2,27.9z"/>
    <path class="st0" d="M20,32.1c0.6,0.6,1.5,0.8,1.9,0.3c0.4-0.5,0.3-1.3-0.3-2c-0.6-0.6-1.5-0.8-1.9-0.3C19.2,30.5,19.4,31.4,20,32.1z"/>
    <path class="st3" d="M20.1,30.4c0.1-0.1,0.3-0.1,0.5-0.1c0.2,0,0.4,0.1,0.5,0.3c0.1,0.1,0.2,0.2,0.3,0.4c0-0.1,0.1-0.1,0.2-0.1c0,0.1,0,0.2,0,0.2c0,0.1,0,0.1,0,0.2c0,0.1,0,0.1,0.1,0.2c0,0.1,0.1,0.1,0.2,0.2c-0.1,0-0.2,0-0.3,0c-0.1-0.1-0.2-0.2-0.2-0.3c0-0.1,0-0.2,0-0.3c0,0,0,0,0-0.1c-0.3-0.2-0.5-0.4-0.7-0.4c-0.1,0-0.3,0-0.4,0c-0.1,0-0.3,0.1-0.4,0.1C19.8,30.6,19.9,30.5,20.1,30.4z"/>
    <path class="st4" d="M26.2,29.9c0.1-0.1,0.1-0.3,0.2-0.4c0-0.1,0-0.3-0.1-0.4c0.1,0,0.2,0,0.3,0.1c0.1,0.1,0.1,0.2,0.2,0.3c0,0.1,0,0.2,0,0.3c0.1,0,0.2,0.1,0.3,0.2c0.1,0.1,0.1,0.2,0.2,0.3c0,0.1,0.1,0.2,0.1,0.3c-0.2-0.1-0.3-0.2-0.4-0.3c-0.1,0-0.1,0-0.2,0c-0.1,0-0.1,0-0.2,0l-0.4,0L26.2,29.9z"/>
    <path class="st3" d="M22.7,28.3c0.2,0,0.3,0,0.5,0c0.2,0,0.3,0.1,0.5,0c0.2,0,0.4,0,0.5-0.2c0.2-0.1,0.3-0.3,0.3-0.5c-0.3,0.2-0.5,0.2-0.9,0.3c-0.2,0-0.3,0-0.5,0.1C22.9,28,22.7,28.1,22.7,28.3z"/>
    <path class="st5" d="M21.6,44.5c0,1.2-0.4,2.2-1.4,2.2c-1,0-1.6-1.1-1.2-2.2c0.6-1.7,2.2-2.7,3.1-2.7C23,41.8,21.6,43.3,21.6,44.5z"/>
    <path class="st5" d="M39.9,44.5c0,1.2,0.4,2.2,1.4,2.2s1.6-1.1,1.2-2.2c-0.6-1.7-2.2-2.7-3.1-2.7C38.4,41.8,39.9,43.3,39.9,44.5z"/>
    <path class="st6" d="M43.8,36.1c0,8.9-5.8,9.1-13,9.1s-13-0.2-13-9.1H43.8z"/>
    <rect x="17.8" y="36.5" class="st5" width="26" height="0.6"/>
    <path class="st7" d="M44,36.7H17.7c-2,0-2-2.3,0-2.3H44C45.7,34.4,45.7,36.7,44,36.7z"/>
    <g class="st8">
        <path class="st9" d="M34.8,22.2c-1.8-1.9-0.6-4.6-0.6-4.6s-3.8,3.6-1.4,6c2.7,2.8,1.4,4.6,1.4,4.6S37.6,25.1,34.8,22.2z"/>
        <path class="st9" d="M29.4,23.8c-1.3-1.3-0.4-3.3-0.4-3.3s-2.8,2.6-1,4.4c2.1,2.1,1,3.4,1,3.4S31.5,25.9,29.4,23.8z"/>
        <path class="st9" d="M40.1,23.8c-1.3-1.3-0.4-3.3-0.4-3.3s-2.8,2.6-1,4.4c2.1,2.1,1,3.4,1,3.4S42.2,25.9,40.1,23.8z"/>
    </g>
</svg>
