<svg aria-roledescription="gitGraph" role="graphics-document document" viewBox="-128.21875 -18 586.21875 252.02023315429688" style="max-width: 586.21875px;" xmlns:xlink="http://www.w3.org/1999/xlink" xmlns="http://www.w3.org/2000/svg" width="100%" id="mermaid-14"><style>#mermaid-14{font-family:monospace;font-size:16px;fill:#333;}@keyframes edge-animation-frame{from{stroke-dashoffset:0;}}@keyframes dash{to{stroke-dashoffset:0;}}#mermaid-14 .edge-animation-slow{stroke-dasharray:9,5!important;stroke-dashoffset:900;animation:dash 50s linear infinite;stroke-linecap:round;}#mermaid-14 .edge-animation-fast{stroke-dasharray:9,5!important;stroke-dashoffset:900;animation:dash 20s linear infinite;stroke-linecap:round;}#mermaid-14 .error-icon{fill:hsl(220.5882352941, 100%, 98.3333333333%);}#mermaid-14 .error-text{fill:rgb(8.5000000002, 5.7500000001, 0);stroke:rgb(8.5000000002, 5.7500000001, 0);}#mermaid-14 .edge-thickness-normal{stroke-width:1px;}#mermaid-14 .edge-thickness-thick{stroke-width:3.5px;}#mermaid-14 .edge-pattern-solid{stroke-dasharray:0;}#mermaid-14 .edge-thickness-invisible{stroke-width:0;fill:none;}#mermaid-14 .edge-pattern-dashed{stroke-dasharray:3;}#mermaid-14 .edge-pattern-dotted{stroke-dasharray:2;}#mermaid-14 .marker{fill:#0b0b0b;stroke:#0b0b0b;}#mermaid-14 .marker.cross{stroke:#0b0b0b;}#mermaid-14 svg{font-family:monospace;font-size:16px;}#mermaid-14 p{margin:0;}#mermaid-14 .commit-id,#mermaid-14 .commit-msg,#mermaid-14 .branch-label{fill:lightgrey;color:lightgrey;font-family:'trebuchet ms',verdana,arial,sans-serif;font-family:var(--mermaid-font-family);}#mermaid-14 .branch-label0{fill:#333;}#mermaid-14 .commit0{stroke:hsl(40.5882352941, 100%, 68.3333333333%);fill:hsl(40.5882352941, 100%, 68.3333333333%);}#mermaid-14 .commit-highlight0{stroke:rgb(0, 52.2500000001, 161.5000000002);fill:rgb(0, 52.2500000001, 161.5000000002);}#mermaid-14 .label0{fill:hsl(40.5882352941, 100%, 68.3333333333%);}#mermaid-14 .arrow0{stroke:hsl(40.5882352941, 100%, 68.3333333333%);}#mermaid-14 .branch-label1{fill:#333;}#mermaid-14 .commit1{stroke:hsl(-79.4117647059, 100%, 68.3333333333%);fill:hsl(-79.4117647059, 100%, 68.3333333333%);}#mermaid-14 .commit-highlight1{stroke:rgb(52.2500000001, 161.5000000002, 0);fill:rgb(52.2500000001, 161.5000000002, 0);}#mermaid-14 .label1{fill:hsl(-79.4117647059, 100%, 68.3333333333%);}#mermaid-14 .arrow1{stroke:hsl(-79.4117647059, 100%, 68.3333333333%);}#mermaid-14 .branch-label2{fill:#333;}#mermaid-14 .commit2{stroke:hsl(220.5882352941, 100%, 73.3333333333%);fill:hsl(220.5882352941, 100%, 73.3333333333%);}#mermaid-14 .commit-highlight2{stroke:rgb(136.0000000002, 92.0000000001, 0);fill:rgb(136.0000000002, 92.0000000001, 0);}#mermaid-14 .label2{fill:hsl(220.5882352941, 100%, 73.3333333333%);}#mermaid-14 .arrow2{stroke:hsl(220.5882352941, 100%, 73.3333333333%);}#mermaid-14 .branch-label3{fill:#333;}#mermaid-14 .commit3{stroke:hsl(10.5882352941, 100%, 68.3333333333%);fill:hsl(10.5882352941, 100%, 68.3333333333%);}#mermaid-14 .commit-highlight3{stroke:rgb(0, 133.0000000002, 161.5000000002);fill:rgb(0, 133.0000000002, 161.5000000002);}#mermaid-14 .label3{fill:hsl(10.5882352941, 100%, 68.3333333333%);}#mermaid-14 .arrow3{stroke:hsl(10.5882352941, 100%, 68.3333333333%);}#mermaid-14 .branch-label4{fill:#333;}#mermaid-14 .commit4{stroke:hsl(-19.4117647059, 100%, 68.3333333333%);fill:hsl(-19.4117647059, 100%, 68.3333333333%);}#mermaid-14 .commit-highlight4{stroke:rgb(0, 161.5000000002, 109.2500000001);fill:rgb(0, 161.5000000002, 109.2500000001);}#mermaid-14 .label4{fill:hsl(-19.4117647059, 100%, 68.3333333333%);}#mermaid-14 .arrow4{stroke:hsl(-19.4117647059, 100%, 68.3333333333%);}#mermaid-14 .branch-label5{fill:#333;}#mermaid-14 .commit5{stroke:hsl(-49.4117647059, 100%, 68.3333333333%);fill:hsl(-49.4117647059, 100%, 68.3333333333%);}#mermaid-14 .commit-highlight5{stroke:rgb(0, 161.5000000002, 28.5);fill:rgb(0, 161.5000000002, 28.5);}#mermaid-14 .label5{fill:hsl(-49.4117647059, 100%, 68.3333333333%);}#mermaid-14 .arrow5{stroke:hsl(-49.4117647059, 100%, 68.3333333333%);}#mermaid-14 .branch-label6{fill:#333;}#mermaid-14 .commit6{stroke:hsl(100.5882352941, 100%, 68.3333333333%);fill:hsl(100.5882352941, 100%, 68.3333333333%);}#mermaid-14 .commit-highlight6{stroke:rgb(109.2500000001, 0, 161.5000000002);fill:rgb(109.2500000001, 0, 161.5000000002);}#mermaid-14 .label6{fill:hsl(100.5882352941, 100%, 68.3333333333%);}#mermaid-14 .arrow6{stroke:hsl(100.5882352941, 100%, 68.3333333333%);}#mermaid-14 .branch-label7{fill:#333;}#mermaid-14 .commit7{stroke:hsl(160.5882352941, 100%, 68.3333333333%);fill:hsl(160.5882352941, 100%, 68.3333333333%);}#mermaid-14 .commit-highlight7{stroke:rgb(161.5000000002, 0, 52.2500000001);fill:rgb(161.5000000002, 0, 52.2500000001);}#mermaid-14 .label7{fill:hsl(160.5882352941, 100%, 68.3333333333%);}#mermaid-14 .arrow7{stroke:hsl(160.5882352941, 100%, 68.3333333333%);}#mermaid-14 .branch{stroke-width:1;stroke:#0b0b0b;stroke-dasharray:2;}#mermaid-14 .commit-label{font-size:10px;fill:rgb(11.0000000001, 34.0000000002, 0);}#mermaid-14 .commit-label-bkg{font-size:10px;fill:hsl(-79.4117647059, 100%, 93.3333333333%);opacity:0.5;}#mermaid-14 .tag-label{font-size:10px;fill:#333;}#mermaid-14 .tag-label-bkg{fill:#fff4dd;stroke:hsl(40.5882352941, 60%, 83.3333333333%);}#mermaid-14 .tag-hole{fill:#333;}#mermaid-14 .commit-merge{stroke:#fff4dd;fill:#fff4dd;}#mermaid-14 .commit-reverse{stroke:#fff4dd;fill:#fff4dd;stroke-width:3;}#mermaid-14 .commit-highlight-inner{stroke:#fff4dd;fill:#fff4dd;}#mermaid-14 .arrow{stroke-width:8;stroke-linecap:round;fill:none;}#mermaid-14 .gitTitleText{text-anchor:middle;font-size:18px;fill:#333;}#mermaid-14 :root{--mermaid-font-family:monospace;}</style><g/><g class="commit-bullets"/><g class="commit-labels"/><g><line class="branch branch0" y2="0" x2="450" y1="0" x1="0"/><rect transform="translate(-19, -9)" height="22" width="56.421875" y="-1" x="-72.421875" ry="4" rx="4" class="branchLabelBkg label0"/><g class="branchLabel"><g transform="translate(-82.421875, -10)" class="label branch-label0"><text><tspan class="row" x="0" dy="1em" xml:space="preserve">main</tspan></text></g></g><line class="branch branch1" y2="90" x2="450" y1="90" x1="0"/><rect transform="translate(-19, 81)" height="22" width="85.21875" y="-1" x="-101.21875" ry="4" rx="4" class="branchLabelBkg label1"/><g class="branchLabel"><g transform="translate(-111.21875, 80)" class="label branch-label1"><text><tspan class="row" x="0" dy="1em" xml:space="preserve">develop</tspan></text></g></g><line class="branch branch2" y2="180" x2="450" y1="180" x1="0"/><rect transform="translate(-19, 171)" height="22" width="85.21875" y="-1" x="-101.21875" ry="4" rx="4" class="branchLabelBkg label2"/><g class="branchLabel"><g transform="translate(-111.21875, 170)" class="label branch-label2"><text><tspan class="row" x="0" dy="1em" xml:space="preserve">release</tspan></text></g></g></g><g class="commit-arrows"><path class="arrow arrow2" d="M 10 0 L 10 160 A 20 20, 0, 0, 0, 30 180 L 60 180"/><path class="arrow arrow0" d="M 10 0 L 110 0"/><path class="arrow arrow1" d="M 10 0 L 10 70 A 20 20, 0, 0, 0, 30 90 L 160 90"/><path class="arrow arrow0" d="M 110 0 L 210 0"/><path class="arrow arrow1" d="M 160 90 L 190 90 A 20 20, 0, 0, 0, 210 70 L 210 0"/><path class="arrow arrow0" d="M 210 0 L 260 0"/><path class="arrow arrow2" d="M 60 180 L 310 180"/><path class="arrow arrow2" d="M 210 0 L 210 160 A 20 20, 0, 0, 0, 230 180 L 310 180"/><path class="arrow arrow2" d="M 310 180 L 360 180"/><path class="arrow arrow1" d="M 160 90 L 410 90"/></g><g class="commit-bullets"><circle class="commit ZERO commit0" r="10" cy="0" cx="10"/><circle class="commit A commit2" r="10" cy="180" cx="60"/><circle class="commit ONE commit0" r="10" cy="0" cx="110"/><circle class="commit B commit1" r="10" cy="90" cx="160"/><circle class="commit MERGE commit0" r="9" cy="0" cx="210"/><circle class="commit commit-merge MERGE commit0" r="6" cy="0" cx="210"/><circle class="commit TWO commit0" r="10" cy="0" cx="260"/><circle class="commit 6-8af5937 commit-cherry-pick" r="10" cy="180" cx="310"/><circle class="commit 6-8af5937 commit-cherry-pick" fill="#fff" r="2.75" cy="182" cx="307"/><circle class="commit 6-8af5937 commit-cherry-pick" fill="#fff" r="2.75" cy="182" cx="313"/><line class="commit 6-8af5937 commit-cherry-pick" stroke="#fff" y2="175" x2="310" y1="181" x1="313"/><line class="commit 6-8af5937 commit-cherry-pick" stroke="#fff" y2="175" x2="310" y1="181" x1="307"/><circle class="commit THREE commit2" r="10" cy="180" cx="360"/><circle class="commit C commit1" r="10" cy="90" cx="410"/></g><g class="commit-labels"><g transform="translate(-20.4259375, 18.1653125) rotate(-45, 0, 0)"><rect height="16" width="28.015625" y="13.5" x="-4.0078125" class="commit-label-bkg"/><text class="commit-label" y="25" x="-2.0078125">ZERO</text></g><g transform="translate(-13.602636718749999, 12.06025390625) rotate(-45, 50, 180)"><rect height="16" width="10.0595703125" y="193.5" x="54.97021484375" class="commit-label-bkg"/><text class="commit-label" y="205" x="56.97021484375">A</text></g><g transform="translate(-18.145937500000002, 16.1253125) rotate(-45, 100, 0)"><rect height="16" width="22.015625" y="13.5" x="98.9921875" class="commit-label-bkg"/><text class="commit-label" y="25" x="100.9921875">ONE</text></g><g transform="translate(-13.5859375, 12.0453125) rotate(-45, 150, 90)"><rect height="16" width="10.015625" y="103.5" x="154.9921875" class="commit-label-bkg"/><text class="commit-label" y="115" x="156.9921875">B</text></g><g transform="translate(-22.705937499999997, 20.205312499999998) rotate(-45, 200, 0)"><rect height="16" width="34.015625" y="13.5" x="192.9921875" class="commit-label-bkg"/><text class="commit-label" y="25" x="194.9921875">MERGE</text></g><g transform="translate(-18.145937500000002, 16.1253125) rotate(-45, 250, 0)"><rect height="16" width="22.015625" y="13.5" x="248.9921875" class="commit-label-bkg"/><text class="commit-label" y="25" x="250.9921875">TWO</text></g><polygon points="219.984375,162.8  &#10;      219.984375,158.8&#10;      227.984375,152.56953125&#10;      392.015625,152.56953125&#10;      392.015625,169.03046875&#10;      227.984375,169.03046875" class="tag-label-bkg"/><circle class="tag-hole" r="1.5" cx="223.984375" cy="160.8"/><text x="231.984375" class="tag-label" y="164">cherry-pick:MERGE|parent:B</text><g transform="translate(-22.705937499999997, 20.205312499999998) rotate(-45, 350, 180)"><rect height="16" width="34.015625" y="193.5" x="342.9921875" class="commit-label-bkg"/><text class="commit-label" y="205" x="344.9921875">THREE</text></g><g transform="translate(-13.5859375, 12.0453125) rotate(-45, 400, 90)"><rect height="16" width="10.015625" y="103.5" x="404.9921875" class="commit-label-bkg"/><text class="commit-label" y="115" x="406.9921875">C</text></g></g></svg>