<svg aria-roledescription="gitGraph" role="graphics-document document" viewBox="-115.609375 -18 573.609375 252.02023315429688" style="max-width: 573.609375px;" xmlns:xlink="http://www.w3.org/1999/xlink" xmlns="http://www.w3.org/2000/svg" width="100%" id="mermaid-14"><style>#mermaid-14{font-family:monospace;font-size:13px;fill:#f0f0f1;}@keyframes edge-animation-frame{from{stroke-dashoffset:0;}}@keyframes dash{to{stroke-dashoffset:0;}}#mermaid-14 .edge-animation-slow{stroke-dasharray:9,5!important;stroke-dashoffset:900;animation:dash 50s linear infinite;stroke-linecap:round;}#mermaid-14 .edge-animation-fast{stroke-dasharray:9,5!important;stroke-dashoffset:900;animation:dash 20s linear infinite;stroke-linecap:round;}#mermaid-14 .error-icon{fill:hsl(240, 0.6451612903%, 74.6078431373%);}#mermaid-14 .error-text{fill:rgb(65.1677419354, 65.1677419354, 64.3322580644);stroke:rgb(65.1677419354, 65.1677419354, 64.3322580644);}#mermaid-14 .edge-thickness-normal{stroke-width:1px;}#mermaid-14 .edge-thickness-thick{stroke-width:3.5px;}#mermaid-14 .edge-pattern-solid{stroke-dasharray:0;}#mermaid-14 .edge-thickness-invisible{stroke-width:0;fill:none;}#mermaid-14 .edge-pattern-dashed{stroke-dasharray:3;}#mermaid-14 .edge-pattern-dotted{stroke-dasharray:2;}#mermaid-14 .marker{fill:#5a5c63;stroke:#5a5c63;}#mermaid-14 .marker.cross{stroke:#5a5c63;}#mermaid-14 svg{font-family:monospace;font-size:13px;}#mermaid-14 p{margin:0;}#mermaid-14 .commit-id,#mermaid-14 .commit-msg,#mermaid-14 .branch-label{fill:lightgrey;color:lightgrey;font-family:'trebuchet ms',verdana,arial,sans-serif;font-family:var(--mermaid-font-family);}#mermaid-14 .branch-label0{fill:#f0f0f1;}#mermaid-14 .commit0{stroke:#808080;fill:#808080;}#mermaid-14 .commit-highlight0{stroke:rgb(190.7499999999, 190.7499999999, 190.7499999999);fill:rgb(190.7499999999, 190.7499999999, 190.7499999999);}#mermaid-14 .label0{fill:#808080;}#mermaid-14 .arrow0{stroke:#808080;}#mermaid-14 .branch-label1{fill:#f0f0f1;}#mermaid-14 .commit1{stroke:#5a5c63;fill:#5a5c63;}#mermaid-14 .commit-highlight1{stroke:rgb(225.7142857143, 225.0634920635, 222.7857142857);fill:rgb(225.7142857143, 225.0634920635, 222.7857142857);}#mermaid-14 .label1{fill:#5a5c63;}#mermaid-14 .arrow1{stroke:#5a5c63;}#mermaid-14 .branch-label2{fill:#f0f0f1;}#mermaid-14 .commit2{stroke:#545480;fill:#545480;}#mermaid-14 .commit-highlight2{stroke:rgb(221.5188679245, 221.5188679245, 203.9811320754);fill:rgb(221.5188679245, 221.5188679245, 203.9811320754);}#mermaid-14 .label2{fill:#545480;}#mermaid-14 .arrow2{stroke:#545480;}#mermaid-14 .branch-label3{fill:#f0f0f1;}#mermaid-14 .commit3{stroke:#867d80;fill:#867d80;}#mermaid-14 .commit-highlight3{stroke:rgb(186.8924302789, 191.6075697211, 190.0358565737);fill:rgb(186.8924302789, 191.6075697211, 190.0358565737);}#mermaid-14 .label3{fill:#867d80;}#mermaid-14 .arrow3{stroke:#867d80;}#mermaid-14 .branch-label4{fill:#f0f0f1;}#mermaid-14 .commit4{stroke:#54806f;fill:#54806f;}#mermaid-14 .commit-highlight4{stroke:rgb(221.5188679245, 203.9811320754, 210.7570754716);fill:rgb(221.5188679245, 203.9811320754, 210.7570754716);}#mermaid-14 .label4{fill:#54806f;}#mermaid-14 .arrow4{stroke:#54806f;}#mermaid-14 .branch-label5{fill:#f0f0f1;}#mermaid-14 .commit5{stroke:#75807d;fill:#75807d;}#mermaid-14 .commit-highlight5{stroke:rgb(198.887755102, 193.6122448979, 195.0510204081);fill:rgb(198.887755102, 193.6122448979, 195.0510204081);}#mermaid-14 .label5{fill:#75807d;}#mermaid-14 .arrow5{stroke:#75807d;}#mermaid-14 .branch-label6{fill:#f0f0f1;}#mermaid-14 .commit6{stroke:#b2b2b1;fill:#b2b2b1;}#mermaid-14 .commit-highlight6{stroke:rgb(140.5161290322, 140.5161290322, 141.9838709676);fill:rgb(140.5161290322, 140.5161290322, 141.9838709676);}#mermaid-14 .label6{fill:#b2b2b1;}#mermaid-14 .arrow6{stroke:#b2b2b1;}#mermaid-14 .branch-label7{fill:#f0f0f1;}#mermaid-14 .commit7{stroke:#80547c;fill:#80547c;}#mermaid-14 .commit-highlight7{stroke:rgb(203.9811320754, 221.5188679245, 205.5754716981);fill:rgb(203.9811320754, 221.5188679245, 205.5754716981);}#mermaid-14 .label7{fill:#80547c;}#mermaid-14 .arrow7{stroke:#80547c;}#mermaid-14 .branch{stroke-width:1;stroke:#5a5c63;stroke-dasharray:2;}#mermaid-14 .commit-label{font-size:10px;fill:#f0f0f1;}#mermaid-14 .commit-label-bkg{font-size:10px;fill:#62626a;opacity:0.5;}#mermaid-14 .tag-label{font-size:10px;fill:#f4d701;}#mermaid-14 .tag-label-bkg{fill:#484826;stroke:#7b731a;}#mermaid-14 .tag-hole{fill:#f0f0f1;}#mermaid-14 .commit-merge{stroke:#b2b2b1;fill:#b2b2b1;}#mermaid-14 .commit-reverse{stroke:#b2b2b1;fill:#b2b2b1;stroke-width:3;}#mermaid-14 .commit-highlight-inner{stroke:#b2b2b1;fill:#b2b2b1;}#mermaid-14 .arrow{stroke-width:8;stroke-linecap:round;fill:none;}#mermaid-14 .gitTitleText{text-anchor:middle;font-size:18px;fill:#f0f0f1;}#mermaid-14 :root{--mermaid-font-family:monospace;}</style><g/><g class="commit-bullets"/><g class="commit-labels"/><g><line class="branch branch0" y2="0" x2="450" y1="0" x1="0"/><rect transform="translate(-19, -7.5)" height="19" width="49.2314453125" y="0.5" x="-65.2314453125" ry="4" rx="4" class="branchLabelBkg label0"/><g class="branchLabel"><g transform="translate(-75.2314453125, -8.5)" class="label branch-label0"><text><tspan class="row" x="0" dy="1em" xml:space="preserve">main</tspan></text></g></g><line class="branch branch1" y2="90" x2="450" y1="90" x1="0"/><rect transform="translate(-19, 82.5)" height="19" width="72.609375" y="0.5" x="-88.609375" ry="4" rx="4" class="branchLabelBkg label1"/><g class="branchLabel"><g transform="translate(-98.609375, 81.5)" class="label branch-label1"><text><tspan class="row" x="0" dy="1em" xml:space="preserve">develop</tspan></text></g></g><line class="branch branch2" y2="180" x2="450" y1="180" x1="0"/><rect transform="translate(-19, 172.5)" height="19" width="72.609375" y="0.5" x="-88.609375" ry="4" rx="4" class="branchLabelBkg label2"/><g class="branchLabel"><g transform="translate(-98.609375, 171.5)" class="label branch-label2"><text><tspan class="row" x="0" dy="1em" xml:space="preserve">release</tspan></text></g></g></g><g class="commit-arrows"><path class="arrow arrow2" d="M 10 0 L 10 160 A 20 20, 0, 0, 0, 30 180 L 60 180"/><path class="arrow arrow0" d="M 10 0 L 110 0"/><path class="arrow arrow1" d="M 10 0 L 10 70 A 20 20, 0, 0, 0, 30 90 L 160 90"/><path class="arrow arrow0" d="M 110 0 L 210 0"/><path class="arrow arrow1" d="M 160 90 L 190 90 A 20 20, 0, 0, 0, 210 70 L 210 0"/><path class="arrow arrow0" d="M 210 0 L 260 0"/><path class="arrow arrow2" d="M 60 180 L 310 180"/><path class="arrow arrow2" d="M 210 0 L 210 160 A 20 20, 0, 0, 0, 230 180 L 310 180"/><path class="arrow arrow2" d="M 310 180 L 360 180"/><path class="arrow arrow1" d="M 160 90 L 410 90"/></g><g class="commit-bullets"><circle class="commit ZERO commit0" r="10" cy="0" cx="10"/><circle class="commit A commit2" r="10" cy="180" cx="60"/><circle class="commit ONE commit0" r="10" cy="0" cx="110"/><circle class="commit B commit1" r="10" cy="90" cx="160"/><circle class="commit MERGE commit0" r="9" cy="0" cx="210"/><circle class="commit commit-merge MERGE commit0" r="6" cy="0" cx="210"/><circle class="commit TWO commit0" r="10" cy="0" cx="260"/><circle class="commit 6-cf13772 commit-cherry-pick" r="10" cy="180" cx="310"/><circle class="commit 6-cf13772 commit-cherry-pick" fill="#fff" r="2.75" cy="182" cx="307"/><circle class="commit 6-cf13772 commit-cherry-pick" fill="#fff" r="2.75" cy="182" cx="313"/><line class="commit 6-cf13772 commit-cherry-pick" stroke="#fff" y2="175" x2="310" y1="181" x1="313"/><line class="commit 6-cf13772 commit-cherry-pick" stroke="#fff" y2="175" x2="310" y1="181" x1="307"/><circle class="commit THREE commit2" r="10" cy="180" cx="360"/><circle class="commit C commit1" r="10" cy="90" cx="410"/></g><g class="commit-labels"><g transform="translate(-20.4259375, 18.1653125) rotate(-45, 0, 0)"><rect height="16" width="28.015625" y="13.5" x="-4.0078125" class="commit-label-bkg"/><text class="commit-label" y="25" x="-2.0078125">ZERO</text></g><g transform="translate(-13.602636718749999, 12.06025390625) rotate(-45, 50, 180)"><rect height="16" width="10.0595703125" y="193.5" x="54.97021484375" class="commit-label-bkg"/><text class="commit-label" y="205" x="56.97021484375">A</text></g><g transform="translate(-18.145937500000002, 16.1253125) rotate(-45, 100, 0)"><rect height="16" width="22.015625" y="13.5" x="98.9921875" class="commit-label-bkg"/><text class="commit-label" y="25" x="100.9921875">ONE</text></g><g transform="translate(-13.5859375, 12.0453125) rotate(-45, 150, 90)"><rect height="16" width="10.015625" y="103.5" x="154.9921875" class="commit-label-bkg"/><text class="commit-label" y="115" x="156.9921875">B</text></g><g transform="translate(-22.705937499999997, 20.205312499999998) rotate(-45, 200, 0)"><rect height="16" width="34.015625" y="13.5" x="192.9921875" class="commit-label-bkg"/><text class="commit-label" y="25" x="194.9921875">MERGE</text></g><g transform="translate(-18.145937500000002, 16.1253125) rotate(-45, 250, 0)"><rect height="16" width="22.015625" y="13.5" x="248.9921875" class="commit-label-bkg"/><text class="commit-label" y="25" x="250.9921875">TWO</text></g><polygon points="219.984375,162.8  &#10;      219.984375,158.8&#10;      227.984375,152.56953125&#10;      392.015625,152.56953125&#10;      392.015625,169.03046875&#10;      227.984375,169.03046875" class="tag-label-bkg"/><circle class="tag-hole" r="1.5" cx="223.984375" cy="160.8"/><text x="231.984375" class="tag-label" y="164">cherry-pick:MERGE|parent:B</text><g transform="translate(-22.705937499999997, 20.205312499999998) rotate(-45, 350, 180)"><rect height="16" width="34.015625" y="193.5" x="342.9921875" class="commit-label-bkg"/><text class="commit-label" y="205" x="344.9921875">THREE</text></g><g transform="translate(-13.5859375, 12.0453125) rotate(-45, 400, 90)"><rect height="16" width="10.015625" y="103.5" x="404.9921875" class="commit-label-bkg"/><text class="commit-label" y="115" x="406.9921875">C</text></g></g></svg>