<?xml version="1.0" encoding="utf-8"?>
<!-- Generator: Adobe Illustrator 25.4.1, SVG Export Plug-In . SVG Version: 6.00 Build 0)  -->
<svg version="1.1" id="レイヤー_1" xmlns="http://www.w3.org/2000/svg" xmlns:xlink="http://www.w3.org/1999/xlink" x="0px"
     y="0px" viewBox="0 0 500 500" style="enable-background:new 0 0 500 500;" xml:space="preserve">
<style type="text/css">
	.st0{fill:#fff;}
</style>
    <title>icon</title>
    <g class="st0">
	<path  d="M154.15,206h-31.5v95.25h-27V206h-31.5v-21.75h90V206z"/>
        <path d="M240.85,281v20.25h-71.7v-117h70.35v20.25h-43.35v27.75h39v19.5h-39V281H240.85z"/>
        <path d="M277.45,262.55c1.95,13.2,7.95,20.4,20.4,20.4c7.05,0,12.3-3.6,12.3-11.1c0-8.4-5.1-11.7-23.55-18.15
		c-21.3-7.5-32.25-17.85-32.25-35.7c0-22.05,15.6-35.25,39.3-35.25c24,0,38.7,12,42,34.35l-26.7,5.55
		c-1.05-14.1-6.6-21.45-16.5-21.45c-7.65,0-11.85,4.8-11.85,12c0,7.95,5.55,12.15,22.35,17.55c24.9,7.95,35.4,17.25,35.4,36.45
		c0,21.75-15.75,35.7-42.15,35.7c-27.6,0-43.2-12.45-46.35-36.9L277.45,262.55z"/>
        <path  d="M435.84,206h-31.5v95.25h-27V206h-31.5v-21.75h90V206z"/>
</g>
</svg>
